<svg width="60" height="60" viewBox="0 0 60 60" fill="none" xmlns="http://www.w3.org/2000/svg">
<path d="M60 30C60 46.5484 46.5484 60 30 60C13.4516 60 0 46.5484 0 30C0 13.4516 13.4516 0 30 0C46.5484 0 60 13.4516 60 30Z" fill="#D84315"/>
<path d="M30 0C46.5484 0 60 13.4516 60 30C60 46.5484 46.5484 60 30 60" fill="#D84315"/>
<path d="M8.8064 8.80646C20.5161 -2.90322 39.4838 -2.90322 51.1935 8.80646C62.9032 20.5161 62.9032 39.4839 51.1935 51.1936" fill="#D84315"/>
<path d="M25.742 43.6452C25.5484 43.6452 25.2581 43.5484 25.0646 43.4516C24.5807 43.2581 24.1936 42.6774 24.1936 42.1936V24.0968C24.1936 23.6129 24.5807 23.0323 25.0646 22.8387C25.5484 22.6452 26.1291 22.6452 26.613 22.9355L38.9033 32.0323C39.2904 32.3226 39.4839 32.7097 39.4839 33.1936C39.4839 33.6774 39.2904 34.0645 38.9033 34.3548L26.613 43.4516C26.3226 43.5484 26.0323 43.6452 25.742 43.6452Z" fill="#D84315"/>
<path d="M25.742 40.4516C25.5484 40.4516 25.2581 40.3548 25.0646 40.258C24.5807 40.0645 24.1936 39.4839 24.1936 39V20.9032C24.1936 20.4193 24.5807 19.8387 25.0646 19.6451C25.5484 19.4516 26.1291 19.4516 26.613 19.7419L38.9033 28.8387C39.2904 29.129 39.4839 29.5161 39.4839 30C39.4839 30.4839 39.2904 30.871 38.9033 31.1613L26.613 40.258C26.3226 40.3548 26.0323 40.4516 25.742 40.4516Z" fill="white"/>
</svg>
