<svg width="60" height="60" viewBox="0 0 60 60" fill="none" xmlns="http://www.w3.org/2000/svg">
<g clip-path="url(#clip0_1_51)">
<path d="M60 30C60 46.5484 46.5484 60 30 60C13.4516 60 0 46.5484 0 30C0 13.4516 13.4516 0 30 0C46.5484 0 60 13.4516 60 30Z" fill="#D84315"/>
<path d="M30 0C46.5484 0 60 13.4516 60 30C60 46.5484 46.5484 60 30 60" fill="#D84315"/>
<path d="M8.80646 8.80646C20.5161 -2.90322 39.4839 -2.90322 51.1936 8.80646C62.9032 20.5161 62.9032 39.4839 51.1936 51.1936" fill="#D84315"/>
<path d="M38.7097 28.8387C38.7097 26.8064 37.0645 25.1613 35.0322 25.1613H24.9677C22.9355 25.1613 21.2903 26.8064 21.2903 28.8387V39C21.2903 41.0323 22.9355 42.6774 24.9677 42.6774H35.129C37.1613 42.6774 38.8064 41.0323 38.8064 39V28.8387H38.7097V28.8387Z" fill="#D84315"/>
<path d="M38.7097 24.9677C38.7097 22.9355 37.0645 21.2903 35.0322 21.2903H24.9677C22.9355 21.2903 21.2903 22.9355 21.2903 24.9677V35.129C21.2903 37.1613 22.9355 38.8064 24.9677 38.8064H35.129C37.1613 38.8064 38.8064 37.1613 38.8064 35.129V24.9677H38.7097V24.9677Z" fill="white"/>
</g>
<defs>
<clipPath id="clip0_1_51">
<rect width="60" height="60" fill="white"/>
</clipPath>
</defs>
</svg>
